<svg id="worldwide-2" xmlns="http://www.w3.org/2000/svg" width="174" height="174" viewBox="0 0 174 174">
  <g id="Group_12" data-name="Group 12" transform="translate(9.53 9.04)">
    <path id="Path_15" data-name="Path 15" d="M334.1,51.9l-8.749,5.832-14.581-2.916L302.025,51.9,290.36,54.814,281.611,51.9l5.832-11.665h11.665l11.431-5.716A83.651,83.651,0,0,1,334.1,51.9Z" transform="translate(-195.89 -31.776)" fill="#03aa6f"/>
    <path id="Path_16" data-name="Path 16" d="M100.028,34.956,97.111,43.7l-8.749,2.916L79.614,61.2,65.033,69.951,44.62,72.867v8.749l5.832,5.832V99.113L41.7,93.28l-8.749-5.833L27.881,72.2A84.519,84.519,0,0,1,74.248,26.5l8.282,5.541Z" transform="translate(-27.881 -26.499)" fill="#03aa6f"/>
    <path id="Path_17" data-name="Path 17" d="M138.093,239.588l-2.916,14.581-11.665,11.665v8.749l-11.665,8.749v14.581L103.1,295l-5.833-14.581V251.252l-14.581-2.916-5.832-11.665v-8.749l5.832-5.832,8.749-8.749,5.832,11.665H117.68l8.749,14.581Z" transform="translate(-60.114 -150.449)" fill="#03aa6f"/>
    <path id="Path_18" data-name="Path 18" d="M341.028,124.831a84.487,84.487,0,0,1-4.666,90.023l-7.874-7.874V195.316l-5.832-11.665-5.832-11.665V160.321l-8.749-5.832-11.665,2.916L276,148.657l-2.916-20.413,8.749-8.749h17.5l5.832,8.749,17.5,2.916,17.5-5.832Z" transform="translate(-190.276 -88.68)" fill="#03aa6f"/>
  </g>
  <path id="Path_19" data-name="Path 19" d="M110.04,37.578l11.591-2.9,8.693,2.9,14.488,2.9,8.693-5.8a82.8,82.8,0,0,1,12.46,16.9l-.869.493-17.386,5.8-17.386-2.9-5.8-8.7H107.143l-8.693,8.7,2.9,20.3,20.283,8.7,11.59-2.9,8.693,5.8v11.6l5.8,11.6,5.8,11.6v11.6l7.824,7.828A84.042,84.042,0,0,1,15.17,60.106L20.212,75.27l8.693,5.8,8.693,5.8-5.795,5.8v8.7l5.8,11.6,14.488,2.9v28.994l5.8,14.5,8.693,2.9v-14.5l11.591-8.7v-8.7l11.591-11.6,2.9-14.5H81.064l-8.693-14.5H52.087l-5.8-11.6-8.693,8.7v-11.6l-5.8-5.8v-8.7l20.283-2.9,14.488-8.7,8.693-14.5,8.693-2.9,2.9-8.7-17.386-2.9-8.229-5.509A83.991,83.991,0,0,1,130.092,17.4l-11.359,5.683h-11.59l-5.8,11.6Z" transform="translate(-5.682 -5.668)" fill="#86daf1"/>
  <path id="Path_20" data-name="Path 20" d="M87.005,174.051A87,87,0,1,0,7.057,52.808l-1.084.36.42,1.261A86.943,86.943,0,0,0,87.005,174.051Zm68.261-43.129-4.474-4.472v-10.4a2.906,2.906,0,0,0-.29-1.3L139.2,92.166V81.251a2.9,2.9,0,0,0-1.29-2.413l-8.7-5.8a2.9,2.9,0,0,0-2.319-.4L116.235,75.3,98.342,67.621,95.881,50.372l6.822-6.821h14.645l4.929,7.409a2.9,2.9,0,0,0,1.937,1.25l17.4,2.9A2.872,2.872,0,0,0,143,55l16.022-5.342a80.927,80.927,0,0,1-3.769,81.264h.011ZM143.3,28.628l-4.714,3.144-13.143-2.63L116.916,26.3a2.849,2.849,0,0,0-1.618-.064l-10.78,2.694-4.726-1.575,3.5-7.006H113.1a2.915,2.915,0,0,0,1.3-.3l10.032-5.017A81.478,81.478,0,0,1,143.3,28.628Zm-88.052-16.3,6.959,4.64a2.914,2.914,0,0,0,1.134.447l14.05,2.343-1.371,4.1L68.7,26.305a2.9,2.9,0,0,0-1.569,1.256L58.8,41.44,45.428,49.467,25.712,52.283a2.9,2.9,0,0,0-2.493,2.868v8.7a2.893,2.893,0,0,0,.85,2.05l4.949,4.95v4.982L16.956,67.789,12.58,54.661A81.658,81.658,0,0,1,55.248,12.327Zm-8.254,95.082-13.105-2.624-4.871-9.718V88.252l10.8-10.805,4,8a2.9,2.9,0,0,0,2.6,1.6H65.069l7.854,13.093a2.9,2.9,0,0,0,2.485,1.407h8.06l-2.03,10.17L70.461,122.7a2.9,2.9,0,0,0-.852,2.05V132l-10.438,7.83a2.9,2.9,0,0,0-1.16,2.32v10.475L54.4,151.431l-5.092-12.737V110.251A2.9,2.9,0,0,0,46.994,107.409ZM9.362,63.34l2.409,7.227a2.9,2.9,0,0,0,1.139,1.5L27.365,81.7l-3.3,3.3a2.892,2.892,0,0,0-.85,2.05v8.7a2.916,2.916,0,0,0,.3,1.3l5.8,11.6a2.9,2.9,0,0,0,2.03,1.546l12.178,2.433v26.625a2.909,2.909,0,0,0,.206,1.076l5.8,14.5a2.9,2.9,0,0,0,1.777,1.673l8.7,2.9a2.8,2.8,0,0,0,.9.151,2.9,2.9,0,0,0,2.9-2.9V143.6l10.438-7.83a2.9,2.9,0,0,0,1.16-2.32v-7.5L86.156,115.2a2.917,2.917,0,0,0,.791-1.482l2.9-14.5a2.9,2.9,0,0,0-2.276-3.413,2.851,2.851,0,0,0-.565-.055H77.049L69.195,82.658a2.9,2.9,0,0,0-2.485-1.407h-18.5l-4.981-10a2.9,2.9,0,0,0-2.131-1.566,2.842,2.842,0,0,0-2.514.812l-3.763,3.75v-4.6a2.893,2.893,0,0,0-.85-2.05l-4.949-4.95V57.665l17.808-2.543a2.877,2.877,0,0,0,1.081-.386l14.5-8.7a2.9,2.9,0,0,0,.992-.992l8.147-13.581,7.68-2.564a2.871,2.871,0,0,0,1.832-1.833l2.9-8.7A2.9,2.9,0,0,0,82.111,14.7a3.084,3.084,0,0,0-.429-.107L64.9,11.8,61.951,9.833a80.945,80.945,0,0,1,55.762,2.073l-5.3,2.645H101.5a2.9,2.9,0,0,0-2.609,1.6l-5.8,11.6a2.9,2.9,0,0,0,1.3,3.889,3.051,3.051,0,0,0,.377.157l8.7,2.9a2.849,2.849,0,0,0,1.618.064l10.78-2.694,7.9,2.63a2.077,2.077,0,0,0,.348.093l14.5,2.9a2.874,2.874,0,0,0,2.177-.429l6.6-4.4a81.9,81.9,0,0,1,8.721,11.655l-14.265,4.756L126.4,46.7l-5.1-7.656a2.9,2.9,0,0,0-2.4-1.291H101.5a2.892,2.892,0,0,0-2.05.85l-8.7,8.7a2.9,2.9,0,0,0-.82,2.462l2.9,20.3a2.9,2.9,0,0,0,1.74,2.253l20.3,8.7a2.858,2.858,0,0,0,1.844.148l10.354-2.59L133.4,82.8V92.851a2.907,2.907,0,0,0,.29,1.3l11.308,22.588v10.916a2.893,2.893,0,0,0,.85,2.05l6.066,6.07A81.165,81.165,0,0,1,9.362,63.34Z" transform="translate(0 -0.051)"/>
</svg>
