<svg id="delivery" xmlns="http://www.w3.org/2000/svg" width="174" height="174" viewBox="0 0 174 174">
  <path id="Path_21" data-name="Path 21" d="M136.191,67.628V196.055a13.588,13.588,0,0,1-13.63,13.545H14.13A13.588,13.588,0,0,1,.5,196.055V67.628A13.588,13.588,0,0,1,14.13,54.082H59.812a8.536,8.536,0,0,0,17.071,0h45.679A13.588,13.588,0,0,1,136.191,67.628Zm0,0" transform="translate(-0.5 -35.6)" fill="#2c92bf"/>
  <path id="Path_22" data-name="Path 22" d="M253.594,369.895h30.631v48.563H253.594Zm0,0" transform="translate(-167.638 -244.458)" fill="#1f81a3"/>
  <path id="Path_23" data-name="Path 23" d="M54.836,103.727h98.555V221.565H54.836Zm0,0" transform="translate(-36.267 -69.25)" fill="#e6e6e6"/>
  <path id="Path_24" data-name="Path 24" d="M146.137,11.881a18.482,18.482,0,0,0-34.527,0h-13.6a5.559,5.559,0,0,0-5.559,5.559V46.16h72.846V17.439a5.558,5.558,0,0,0-5.559-5.559ZM128.873,27.02a8.536,8.536,0,1,1,8.537-8.538A8.535,8.535,0,0,1,128.873,27.02Zm0,0" transform="translate(-61.302)" fill="#ffe14d"/>
  <path id="Path_25" data-name="Path 25" d="M253.594,306.438h30.631V355H253.594Zm0,0" transform="translate(-167.638 -202.687)" fill="#ccc"/>
  <path id="Path_26" data-name="Path 26" d="M279.77,306.438h79.458v70.249H279.77Zm0,0" transform="translate(-185.227 -202.687)" fill="#ff8e1d"/>
  <path id="Path_27" data-name="Path 27" d="M383.125,340,369.2,332.147,355.273,340V306.438h27.852Zm0,0" transform="translate(-234.928 -202.435)" fill="#ff491f"/>
  <path id="Path_28" data-name="Path 28" d="M177.432,43.7a11.214,11.214,0,1,1,11.216-11.216A11.227,11.227,0,0,1,177.432,43.7Zm0-17.071a5.858,5.858,0,1,0,5.859,5.855A5.863,5.863,0,0,0,177.432,26.631Zm0,0" transform="translate(-109.918 -14.003)" fill="#ffbe1d"/>
  <path id="Path_29" data-name="Path 29" d="M96.276,206.817a2.679,2.679,0,0,1-2.281-1.275l-6.071-9.876a2.679,2.679,0,0,1,4.564-2.806l3.6,5.858,6.027-11.531a2.678,2.678,0,1,1,4.747,2.482L98.65,205.379a2.679,2.679,0,0,1-2.28,1.436Zm0,0" transform="translate(-57.958 -122.671)" fill="#ff491f"/>
  <path id="Path_30" data-name="Path 30" d="M197.629,214.1H163.35a2.679,2.679,0,0,1,0-5.357h34.28a2.679,2.679,0,0,1,0,5.357Zm0,0" transform="translate(-106.297 -137.812)" fill="#3c3f4d"/>
  <path id="Path_31" data-name="Path 31" d="M96.276,296.2a2.68,2.68,0,0,1-2.281-1.276l-6.071-9.876a2.678,2.678,0,1,1,4.564-2.8l3.6,5.858,6.027-11.532a2.678,2.678,0,0,1,4.747,2.482L98.65,294.762a2.678,2.678,0,0,1-2.28,1.435C96.337,296.2,96.307,296.2,96.276,296.2Zm0,0" transform="translate(-57.958 -181.701)" fill="#ff491f"/>
  <path id="Path_32" data-name="Path 32" d="M197.629,303.477H163.35a2.678,2.678,0,0,1,0-5.356h34.28a2.678,2.678,0,1,1,0,5.356Zm0,0" transform="translate(-106.297 -196.824)" fill="#3c3f4d"/>
  <path id="Path_33" data-name="Path 33" d="M279.77,497.053l39.729-7.76,39.729,7.76Zm0,0" transform="translate(-185.227 -323.053)" fill="#e2720e"/>
</svg>
